<svg width="16" height="16" viewBox="0 0 16 16" fill="none" xmlns="http://www.w3.org/2000/svg">
<g clip-path="url(#clip0_139_484)">
<mask id="mask0_139_484" style="mask-type:luminance" maskUnits="userSpaceOnUse" x="0" y="0" width="16" height="16">
<path d="M16 0H0V16H16V0Z" fill="white" style="fill:white;fill-opacity:1;"/>
</mask>
<g mask="url(#mask0_139_484)">
<path d="M6.66667 2V3.33333H3.33333V12.6667H12.6667V9.33333H14V13.3333C14 13.5101 13.9297 13.6797 13.8047 13.8047C13.6797 13.9297 13.5101 14 13.3333 14H2.66667C2.48985 14 2.32029 13.9297 2.19526 13.8047C2.07024 13.6797 2 13.5101 2 13.3333V2.66667C2 2.48985 2.07024 2.32029 2.19526 2.19526C2.32029 2.07024 2.48985 2 2.66667 2H6.66667ZM11.724 3.33333H8.66667V2H14V7.33333H12.6667V4.276L8 8.94267L7.05733 8L11.724 3.33333Z" fill="#56DFB4" style="fill:#56DFB4;fill:color(display-p3 0.3373 0.8745 0.7059);fill-opacity:1;"/>
</g>
</g>
<defs>
<clipPath id="clip0_139_484">
<rect width="16" height="16" fill="white" style="fill:white;fill-opacity:1;"/>
</clipPath>
</defs>
</svg>
