<svg width="131" height="133" viewBox="0 0 131 133" fill="none" xmlns="http://www.w3.org/2000/svg">
<g opacity="0.4" clip-path="url(#clip0_52_67)">
<g filter="url(#filter0_ii_52_67)">
<path d="M27.223 90.7928C23.113 90.7229 20.7515 86.0881 23.1107 82.722L37.9116 61.6049C38.8187 60.311 39.0783 58.6708 38.6156 57.1598L31.0646 32.5023C29.8611 28.5723 33.5393 24.8938 37.4698 26.0976L62.127 33.6482C63.6382 34.1114 65.278 33.8514 66.5721 32.9445L87.6893 18.1437C91.0554 15.7839 95.6898 18.1457 95.7603 22.2559L96.1982 48.0397C96.2249 49.6198 96.9787 51.0992 98.2414 52.0495L118.844 67.5593C122.127 70.0318 121.314 75.1694 117.426 76.506L93.0399 84.8904C91.5454 85.4042 90.3714 86.5782 89.8576 88.0726L81.4732 112.459C80.1367 116.346 74.9989 117.16 72.5266 113.876L57.0167 93.2741C56.0663 92.0116 54.5869 91.2578 53.0069 91.231L27.223 90.7928Z" fill="#E28DAA" style="fill:#E28DAA;fill:color(display-p3 0.8863 0.5529 0.6667);fill-opacity:1;"/>
</g>
<path d="M27.2282 90.4725C23.3751 90.407 21.161 86.0615 23.3728 82.9058L38.1739 61.7891C39.1374 60.4139 39.4134 58.6711 38.9219 57.0661L31.3711 32.4085C30.2428 28.7236 33.6908 25.2753 37.3755 26.4037L62.0333 33.9547C63.6387 34.4462 65.3808 34.17 66.7558 33.2068L87.873 18.4053C91.0289 16.1936 95.3738 18.4079 95.4392 22.2611L95.8779 48.045C95.906 49.724 96.7069 51.2957 98.0486 52.3053L118.65 67.8155C121.729 70.1332 120.967 74.9499 117.322 76.203L92.9356 84.5874C91.3478 85.1333 90.1005 86.3805 89.5546 87.9682L81.17 112.355C79.9169 115.999 75.1006 116.762 72.7828 113.683L57.2726 93.0813C56.2628 91.74 54.6906 90.9388 53.0119 90.9103L27.2282 90.4725Z" stroke="#484142" stroke-opacity="0.1" style="stroke:#484142;stroke:color(display-p3 0.2824 0.2549 0.2588);stroke-opacity:0.1;"/>
</g>
<defs>
<filter id="filter0_ii_52_67" x="18.1735" y="15.2062" width="113.715" height="103.715" filterUnits="userSpaceOnUse" color-interpolation-filters="sRGB">
<feFlood flood-opacity="0" result="BackgroundImageFix"/>
<feBlend mode="normal" in="SourceGraphic" in2="BackgroundImageFix" result="shape"/>
<feColorMatrix in="SourceAlpha" type="matrix" values="0 0 0 0 0 0 0 0 0 0 0 0 0 0 0 0 0 0 127 0" result="hardAlpha"/>
<feOffset dx="-4" dy="-2"/>
<feGaussianBlur stdDeviation="9.7"/>
<feComposite in2="hardAlpha" operator="arithmetic" k2="-1" k3="1"/>
<feColorMatrix type="matrix" values="0 0 0 0 0.282353 0 0 0 0 0.254902 0 0 0 0 0.258824 0 0 0 0.55 0"/>
<feBlend mode="normal" in2="shape" result="effect1_innerShadow_52_67"/>
<feColorMatrix in="SourceAlpha" type="matrix" values="0 0 0 0 0 0 0 0 0 0 0 0 0 0 0 0 0 0 127 0" result="hardAlpha"/>
<feOffset dx="11" dy="3"/>
<feGaussianBlur stdDeviation="20"/>
<feComposite in2="hardAlpha" operator="arithmetic" k2="-1" k3="1"/>
<feColorMatrix type="matrix" values="0 0 0 0 0.518269 0 0 0 0 1 0 0 0 0 0.959856 0 0 0 0.52 0"/>
<feBlend mode="normal" in2="effect1_innerShadow_52_67" result="effect2_innerShadow_52_67"/>
</filter>
<clipPath id="clip0_52_67">
<rect width="100" height="95.5128" fill="white" style="fill:white;fill-opacity:1;" transform="translate(45.3991 132.463) rotate(-117)"/>
</clipPath>
</defs>
</svg>
